<svg width="50" height="50" viewBox="0 0 50 50" fill="none" xmlns="http://www.w3.org/2000/svg">
<g clip-path="url(#clip0_302:10)">
<circle cx="25" cy="25" r="25" fill="#294D4A"/>
<path d="M31.3409 28.224H18.4769C18.2529 28.864 18.0129 29.568 17.7569 30.336C17.5009 31.072 17.2449 31.808 16.9889 32.544C16.7649 33.248 16.5409 33.92 16.3169 34.56C16.0929 35.168 15.9169 35.68 15.7889 36.096C15.3409 36.288 14.8129 36.384 14.2049 36.384C13.6929 36.384 13.2289 36.256 12.8129 36C12.4289 35.712 12.2369 35.264 12.2369 34.656C12.2369 34.368 12.2849 34.08 12.3809 33.792C12.4769 33.472 12.5889 33.136 12.7169 32.784C13.1969 31.44 13.8049 29.712 14.5409 27.6C15.3089 25.488 16.1249 23.248 16.9889 20.88C17.8849 18.48 18.7809 16.08 19.6769 13.68C20.6049 11.248 21.4529 9.072 22.2209 7.152C22.4769 7.024 22.8609 6.896 23.3729 6.768C23.8849 6.64 24.4129 6.576 24.9569 6.576C25.5969 6.576 26.2049 6.672 26.7809 6.864C27.3889 7.056 27.7729 7.376 27.9329 7.824C28.7009 9.68 29.5169 11.808 30.3809 14.208C31.2769 16.576 32.1729 19.008 33.0689 21.504C33.9649 24 34.8129 26.464 35.6129 28.896C36.4449 31.296 37.1809 33.472 37.8209 35.424C37.5649 35.712 37.2609 35.936 36.9089 36.096C36.5569 36.288 36.1569 36.384 35.7089 36.384C35.1009 36.384 34.6369 36.256 34.3169 36C33.9969 35.712 33.7249 35.248 33.5009 34.608L31.3409 28.224ZM24.9089 9.84C24.5569 10.8 24.1569 11.904 23.7089 13.152C23.2609 14.368 22.7969 15.648 22.3169 16.992C21.8369 18.336 21.3569 19.696 20.8769 21.072C20.3969 22.448 19.9489 23.76 19.5329 25.008H30.3329C29.8529 23.568 29.3569 22.128 28.8449 20.688C28.3329 19.216 27.8369 17.808 27.3569 16.464C26.9089 15.12 26.4769 13.888 26.0609 12.768C25.6769 11.616 25.3569 10.64 25.1009 9.84H24.9089Z" fill="white"/>
<path d="M5 42L45 42" stroke="white" stroke-width="2" stroke-linecap="round"/>
<path d="M5 47L45 47" stroke="white" stroke-width="2" stroke-linecap="round"/>
</g>
<defs>
<clipPath id="clip0_302:10">
<rect width="50" height="50" fill="white"/>
</clipPath>
</defs>
</svg>
