<svg width="69" height="102" viewBox="0 0 69 102" fill="none" xmlns="http://www.w3.org/2000/svg">
<path d="M62.896 58.208C65.392 58.208 66.64 59.296 66.64 61.472V64.736C66.64 66.912 65.392 68 62.896 68H46.864C44.368 68 43.12 66.912 43.12 64.736V61.472C43.12 59.296 44.368 58.208 46.864 58.208H48.976L44.752 46.784H21.904L17.776 58.208H19.792C22.288 58.208 23.536 59.296 23.536 61.472V64.736C23.536 66.912 22.288 68 19.792 68H5.392C2.896 68 1.648 66.912 1.648 64.736V61.472C1.648 59.296 2.896 58.208 5.392 58.208H7.408L27.664 3.488C27.984 2.65599 28.496 2.016 29.2 1.568C29.904 1.056 30.704 0.799995 31.6 0.799995H36.4C37.296 0.799995 38.064 1.056 38.704 1.568C39.408 2.016 39.92 2.65599 40.24 3.488L60.88 58.208H62.896ZM41.104 36.992L33.232 15.488L25.456 36.992H41.104Z" fill="black"/>
<path d="M16.972 95.376C17.284 95.376 17.524 95.484 17.692 95.7C17.86 95.892 17.944 96.18 17.944 96.564V100.596C17.944 100.98 17.8 101.316 17.512 101.604C17.248 101.868 16.912 102 16.504 102H1.42C0.628 102 0.232 101.676 0.232 101.028V100.128C0.232 99.48 0.628 99.156 1.42 99.156H2.356V79.644H1.42C0.628 79.644 0.232 79.32 0.232 78.672V77.772C0.232 77.124 0.628 76.8 1.42 76.8H8.188C8.98 76.8 9.376 77.124 9.376 77.772V78.672C9.376 79.32 8.98 79.644 8.188 79.644H5.596V99.156H15.1V96.564C15.1 95.772 15.424 95.376 16.072 95.376H16.972ZM39.74 95.34C40.052 95.34 40.292 95.448 40.46 95.664C40.628 95.856 40.712 96.144 40.712 96.528V100.596C40.712 100.98 40.568 101.316 40.28 101.604C40.016 101.868 39.68 102 39.272 102H23.252C22.46 102 22.064 101.676 22.064 101.028V100.128C22.064 99.48 22.46 99.156 23.252 99.156H24.188V79.644H23.252C22.46 79.644 22.064 79.32 22.064 78.672V77.772C22.064 77.124 22.46 76.8 23.252 76.8H39.092C39.5 76.8 39.836 76.944 40.1 77.232C40.364 77.496 40.496 77.832 40.496 78.24V81.588C40.496 82.38 40.184 82.776 39.56 82.776H38.624C38 82.776 37.688 82.38 37.688 81.588V79.644H27.428V87.528H35.348C35.636 87.528 35.876 87.636 36.068 87.852C36.284 88.044 36.392 88.284 36.392 88.572V89.328C36.392 89.616 36.284 89.868 36.068 90.084C35.876 90.276 35.636 90.372 35.348 90.372H27.428V99.156H37.868V96.528C37.868 95.736 38.192 95.34 38.84 95.34H39.74ZM66.8981 99.156C67.2581 99.156 67.5461 99.24 67.7621 99.408C67.9781 99.576 68.0861 99.816 68.0861 100.128V101.028C68.0861 101.34 67.9781 101.58 67.7621 101.748C67.5461 101.916 67.2581 102 66.8981 102H61.1021C60.3101 102 59.9141 101.676 59.9141 101.028V100.128C59.9141 99.48 60.3101 99.156 61.1021 99.156H62.1461L56.4221 91.308L50.6981 99.156H51.6701C52.4381 99.156 52.8221 99.48 52.8221 100.128V101.028C52.8221 101.676 52.4381 102 51.6701 102H46.2341C45.4661 102 45.0821 101.676 45.0821 101.028V100.128C45.0821 99.48 45.4661 99.156 46.2341 99.156H47.1701L54.4781 89.328L47.3861 79.644H46.4861C45.6941 79.644 45.2981 79.32 45.2981 78.672V77.772C45.2981 77.124 45.6941 76.8 46.4861 76.8H52.2821C53.0741 76.8 53.4701 77.124 53.4701 77.772V78.672C53.4701 79.32 53.0741 79.644 52.2821 79.644H51.2021L56.7461 87.204L62.2541 79.644H61.2821C60.9221 79.644 60.6341 79.56 60.4181 79.392C60.2021 79.224 60.0941 78.984 60.0941 78.672V77.772C60.0941 77.46 60.2021 77.22 60.4181 77.052C60.6341 76.884 60.9221 76.8 61.2821 76.8H66.6821C67.4741 76.8 67.8701 77.124 67.8701 77.772V78.672C67.8701 79.32 67.4741 79.644 66.6821 79.644H65.7821L58.6541 89.22L65.9621 99.156H66.8981Z" fill="black"/>
</svg>
